<svg xmlns="http://www.w3.org/2000/svg" viewBox="0 0 33 33" width="512" height="512"><g fill="#39b54a"><path d="M30.5 26.109h-28a2.503 2.503 0 0 1-2.5-2.5V4.61c0-1.379 1.122-2.5 2.5-2.5h28c1.378 0 2.5 1.121 2.5 2.5v18.999c0 1.379-1.122 2.5-2.5 2.5zM2.5 3.11c-.827 0-1.5.673-1.5 1.5v18.999c0 .827.673 1.5 1.5 1.5h28c.827 0 1.5-.673 1.5-1.5V4.61c0-.827-.673-1.5-1.5-1.5h-28zm20.375 27.78h-12.75a.5.5 0 0 1 0-1h12.75a.5.5 0 0 1 0 1z"/><path d="M15.846 16.617a3.666 3.666 0 0 1-3.662-3.662 3.666 3.666 0 0 1 3.662-3.661 3.666 3.666 0 0 1 3.662 3.661 3.667 3.667 0 0 1-3.662 3.662zm0-6.324c-1.468 0-2.662 1.193-2.662 2.661s1.194 2.662 2.662 2.662 2.662-1.194 2.662-2.662-1.195-2.661-2.662-2.661z"/><path d="M20.316 17.925a.502.502 0 0 1-.354-.146l-2.191-2.191a.5.5 0 0 1 .707-.707l2.191 2.191a.5.5 0 0 1-.353.853zM16.5 30.89a.5.5 0 0 1-.5-.5v-4.781a.5.5 0 0 1 1 0v4.781a.5.5 0 0 1-.5.5z"/></g></svg>
