<svg xmlns="http://www.w3.org/2000/svg" viewBox="0 0 512.055 512.055" width="512" height="512"><g fill="#39b54a"><path d="M480.737 414.086c-10.786-15.799-25.828-26.767-43.5-31.717a8.412 8.412 0 0 0-.521-.127l-63.821-13.349-17.179-26.049a8.505 8.505 0 0 0-.278-.396 16.08 16.08 0 0 0-10.874-6.284 16.08 16.08 0 0 0-12.212 3.628l-76.325 65.701-76.325-65.701-.153-.128a16.077 16.077 0 0 0-12.06-3.5 16.077 16.077 0 0 0-10.873 6.284c-.097.129-.19.261-.278.396l-17.179 26.049-63.821 13.349a8.412 8.412 0 0 0-.521.127c-17.672 4.951-32.714 15.918-43.5 31.717-9.866 14.45-15.299 31.891-15.299 49.108v19.843c0 15.999 14.355 29.016 32.001 29.016h183.985l.03.001.033-.001h47.918l.033.001.03-.001h183.985c17.646 0 32.001-13.017 32.001-29.016v-19.843c.002-17.217-5.431-34.658-15.297-49.108zm-138.109-62.027l15.674 23.767-55.236 75.949-17.378-17.377-.006-.006-17.902-17.902 74.848-64.431zm-94.601 119.993h16.001c.481 0 .958-.019 1.432-.046l4.81 24.048h-28.485l4.81-24.048c.474.027.951.046 1.432.046zm24.001-24.001c0 4.411-3.589 8-8 8h-16.001c-4.412 0-8-3.589-8-8v-4.687l16.001-16.001 16.001 16.001v4.687zm-102.601-95.992l74.848 64.43-17.902 17.902-.006.006-17.378 17.377-55.236-75.949 15.674-23.766zM32.018 483.037v-19.843c0-25.88 16.097-56.588 46.866-65.349l61.712-12.908 60.959 83.819a7.999 7.999 0 0 0 12.126.951l12.262-12.262a24.093 24.093 0 0 0 5.634 8.058l-6.11 30.549H48.019c-8.822.001-16.001-5.838-16.001-13.015zm448.018 0c0 7.177-7.178 13.016-16.001 13.016H286.587l-6.11-30.549a24.083 24.083 0 0 0 5.634-8.058l12.262 12.262a7.999 7.999 0 0 0 12.126-.951l60.959-83.819 61.712 12.908c30.77 8.761 46.866 39.469 46.866 65.349v19.842z"/><path d="M120.022 254.686v97.38a8 8 0 0 0 16 0v-96.004h7.33c5.937 18.724 15.206 36.329 27.295 51.301 23.268 28.815 53.618 44.685 85.459 44.685 24.659 0 48.591-9.593 69.21-27.742.099-.087.186-.182.279-.272 1.281.084 2.564.14 3.852.14 9.347 0 18.854-2.214 28.096-6.688 30.2-14.617 50.49-48.946 50.49-85.423V184.06c0-13.234-10.767-24.001-24-24.001h-3.274c17.729-67.605 9.697-123.106 2.596-139.246-.012-.028-.028-.053-.041-.081a8.087 8.087 0 0 0-.229-.456c-.047-.088-.092-.179-.142-.265a7.907 7.907 0 0 0-.242-.381c-.066-.1-.129-.201-.199-.297-.071-.098-.148-.19-.223-.284-.091-.114-.181-.229-.278-.338-.061-.068-.127-.132-.19-.198-.118-.123-.235-.246-.36-.361-.055-.051-.115-.097-.171-.146a8.659 8.659 0 0 0-.419-.347c-.063-.047-.129-.089-.193-.135a7.57 7.57 0 0 0-.436-.295c-.081-.05-.167-.094-.25-.141a7.846 7.846 0 0 0-.413-.226c-.105-.052-.215-.096-.322-.143-.125-.055-.248-.112-.375-.161-.121-.046-.246-.083-.37-.124-.12-.039-.239-.081-.361-.115-.123-.034-.248-.058-.373-.086-.13-.029-.259-.061-.391-.083-.111-.019-.224-.03-.336-.044-.151-.02-.301-.04-.453-.05-.094-.006-.189-.006-.284-.01a8.222 8.222 0 0 0-.521-.005c-.083.002-.166.011-.249.016a8.57 8.57 0 0 0-.552.05c-.027.004-.054.004-.082.008-20.061 2.866-44.351-2.012-70.066-7.175C261.715.282 217.162-8.642 182.326 16.2a8.025 8.025 0 0 0-1.622-.165c-35.729 0-60.682 29.608-60.682 72.002 0 19.63 4.947 49.438 9.335 72.021h-1.335c-13.234 0-24 10.767-24 24.001v48.002c0 10.43 6.689 19.323 16 22.625zm230.55 48.397c-16.883 8.171-34.197 6.476-48.86-4.742a23.847 23.847 0 0 0 2.317-10.277c0-13.234-10.767-24.001-24-24.001s-24 10.767-24 24.001c0 13.234 10.767 24 24 24 3.702 0 7.211-.844 10.345-2.347.217.217.445.426.692.621 4.715 3.73 9.702 6.7 14.867 8.928-15.45 11-32.483 16.781-49.826 16.781-26.911 0-52.84-13.757-73.01-38.736-19.908-24.655-31.326-57.284-31.326-89.521v-9.112c0-28.498 16.161-66.981 21.655-79.238 55.276-6.495 99.31-.006 126.772 6.703 24.089 5.886 39.896 12.934 45.595 15.701l14.428 34.33v31.68c0 26.46-7.696 53.45-21.67 75.999a8 8 0 0 0 13.601 8.428c6.968-11.243 12.517-23.484 16.531-36.218h15.351a23.97 23.97 0 0 0 4.52-.433c-6.173 20.8-20.096 38.797-37.982 47.453zm-62.543-15.019c0 4.411-3.589 8-8 8s-8-3.589-8-8c0-4.412 3.589-8.001 8-8.001s8 3.589 8 8.001zM392.033 184.06v48.002c0 4.411-3.589 8-8 8h-11.175c2.208-10.635 3.363-21.46 3.363-32.209v-31.794h7.812c4.411 0 8 3.589 8 8.001zM180.704 32.035c.772 0 1.517-.115 2.223-.32a7.98 7.98 0 0 0 7.047-1.31c29.374-22.312 71.231-13.906 111.709-5.778 21.237 4.265 41.547 8.343 60.306 8.343 2.89 0 5.74-.109 8.555-.317 4.922 17.755 9.586 62.524-3.828 117.681l-7.311-17.395a8 8 0 0 0-3.507-3.903c-2.952-1.63-73.617-39.764-188.896-24.933-.019.002-.037.008-.056.01-.153.021-.304.052-.456.082-.113.022-.228.04-.339.066-.099.024-.196.057-.295.084a7.94 7.94 0 0 0-2.498 1.192l-.011.007c-.064.046-.122.099-.184.146a7.951 7.951 0 0 0-1.426 1.403l-.048.057c-.083.107-.156.223-.234.334-.074.107-.152.211-.221.322-.05.081-.094.167-.141.25-.087.15-.173.301-.25.457l-.023.043c-.619 1.282-9.674 20.183-16.721 43.296-3.985-21.14-8.077-46.957-8.077-63.816 0-38.685 22.442-56.001 44.682-56.001zM120.022 184.06c0-4.412 3.589-8.001 8-8.001h4.582a863.97 863.97 0 0 0 3.166 14.42v17.311c0 10.801 1.163 21.643 3.384 32.272h-11.132c-4.412 0-8-3.589-8-8V184.06z"/></g></svg>
